<svg xmlns="http://www.w3.org/2000/svg" width="1459" height="247" viewBox="0 0 1459 247">
  <g fill="#aaa" fill-opacity="0.2">
    <path d="M2.82008977,103.853445 C11.5607754,104.06797 20.5156158,104.317938 29.6887338,104.604235 C744.418793,126.911279 875.089246,31 1233.00887,31 C1317.09755,31 1390.58297,41.1407212 1456.61169,56.93091 C1459.384,56.9309098 1456.61169,246.392674 1456.61169,246.392674 L2.82008977,246.392674 C2.82008977,246.392674 1.0000173,104.604235 2.82008977,103.853445 Z"/>
    <path d="M1,40.4932479 C154.173447,22.8677448 243.697624,-2.72770555e-14 436.426676,0 C778.323717,3.73675044e-14 878.318506,118.410871 1458.70481,122.322821 C1455.90625,149.394531 1458.70481,244.645642 1458.70481,244.645642 L0.961323129,244.645642 C0.961323129,244.645642 1.00000071,40.4932491 1,40.4932479 Z"/>
  </g>
</svg>
